<svg xmlns="http://www.w3.org/2000/svg" viewBox="0 0 256 256" aria-hidden="true">
  <path fill="#F2F4F8" d="M170.5 16c-15.3.9-33.1 11-43.5 23.5-9.3 11.2-17.6 29.4-14.5 47 17 1.3 34.5-8.7 44.6-21.3 9.3-11.5 17-29 13.4-49.2z"/>
  <path fill="#F2F4F8" d="M214.6 192.5c-9.6 22.1-21.2 44.4-37 63.9-12.6 15.3-24.6 25.6-44.9 26-19.4.4-25.7-12-47.9-12s-29 11.6-47.3 12.4c-19.9.7-35.1-10.1-47.8-25.4C4.7 225.8-15.7 166.9 4.1 123.4c9.9-21.5 27.6-35.2 47-35.6 18.5-.4 36 12.6 47.9 12.6 11.7 0 33.7-15.6 56.8-13.3 9.7.4 37 3.9 54.4 29.5-1.4.9-32.6 19-32.2 56.8.5 45 39.4 60 39.8 60.1z"/>
</svg>
