<svg xmlns="http://www.w3.org/2000/svg" viewBox="0 0 64 64" aria-hidden="true">
  <path fill="#F2F4F8" d="M42.7 8.6c-2 1.9-5.1 3.3-7.9 3.1-.4-2.7 1-5.5 2.8-7.3 2-2 5.2-3.4 7.8-3.4.4 2.8-1 5.4-2.7 7.6z"/>
  <path fill="#F2F4F8" d="M52.7 33.4c-1.6-3.9-.5-8.6 2.8-11.3-2.1-3-5.4-4.8-9-5.1-3.8-.4-7.4 2.2-9.3 2.2-2 0-4.9-2.1-8.1-2-4.1.1-7.8 2.4-9.9 6.1-4.3 7.4-1.1 18.4 3.1 24.3 2 2.9 4.4 6.1 7.6 6 3-.1 4.2-1.9 7.9-1.9s4.8 1.9 8 1.9c3.3-.1 5.3-3 7.3-5.9 2.3-3.4 3.3-6.6 3.4-6.8-.1 0-6.4-2.5-6.5-9.5z"/>
</svg>
